<svg width="300" height="300" xmlns="http://www.w3.org/2000/svg">
 <title>Icon</title>

 <g>
  <title>Layer 1</title>
  <line fill="#000000" x1="122" y1="118" x2="124" y2="252" id="svg_3" stroke-linejoin="undefined" stroke-linecap="undefined" stroke="#bf0000" stroke-width="5"/>
  <line fill="none" stroke="#000" x1="-310" y1="15" x2="-312" y2="9" id="svg_4" stroke-linejoin="undefined" stroke-linecap="undefined"/>
  <line fill="#000000" stroke="#bf0000" x1="123" y1="251" x2="154" y2="251" id="svg_6" stroke-linejoin="undefined" stroke-linecap="undefined" stroke-width="5"/>
  <line fill="#000000" x1="153" y1="250" x2="152" y2="107" id="svg_8" stroke-linejoin="undefined" stroke-linecap="undefined" stroke="#bf0000" stroke-width="5"/>
  <path fill="#ff0000" stroke="#bf0000" id="svg_9" d="m150,109c0,0 0,0 1,0c1,0 1.29289,0.70711 2,0c0.70711,-0.70711 1,-1 1,-1c0,0 1,0 2,0c1,0 1,0 1,0c1,0 1,0 1,0c1,0 2,0 2,0c1,0 1,0 2,0c0,0 1,0 1,0c1,0 2,0 2,0c1,-1 3,-1 3,-1c0,0 1,0 2,0c1,0 2,-1 2,-1c1,0 2,0 3,0c1,0 1,0 2,0c1,0 2,0 4,0c0,0 1,0 2,0c0,0 1,0 1,0c1,0 2,0 3,0c1,0 2,0 3,0c1,0 2,0 2,0c1,0 2,0 2,0c1,0 2,0 3,0c1,0 2,-1 3,-1c1,0 1,0 2,0c1,0 3,-1 4,-1c0,0 1,-1 2,-1c1,0 2,0 2,0c1,-1 2,-1 2,-1c1,-1 2,-1 2,-1c1,-1 2,-1 2,-1c1,0 1,0 1,0c1,0 2,-1 2,-1c1,0 2,0 2,0c1,-1 1,-1 2,-1c1,0 1.07611,0.38269 2,0c1.30655,-0.5412 1,-1 2,-1c1,0 2,-1 3,-1c0,0 0.07611,0.38269 1,0c1.30655,-0.5412 1.07611,-0.61731 2,-1c1.30655,-0.5412 1.29291,-0.29289 2,-1c0.70709,-0.70711 0.29291,-0.29289 1,-1c0.70709,-0.70711 0,-1 1,-1c0,0 0,0 0,0c1,-1 1,-1 1,-1c1,0 1,0 2,0c0,0 0,-1 1,-1c0,0 1,0 1,0c0,-1 1,-1 1,-1c0,0 1,0 1,0c0,0 1,-1 1,-1c0,0 1,0 1,0c1,0 0.29291,-0.29289 1,-1c0.70709,-0.70711 1,0 1,0c1,-1 1,-1 1,-1c1,-1 1.4588,-0.69344 2,-2c0.38269,-0.92387 1,-2 1,-2c0,-1 0.29291,-1.29289 1,-2c0.70709,-0.70711 0,-1 0,-1l0,0l0,0l1,0" stroke-width="2"/>
  <path style="vector-effect: non-scaling-stroke;" stroke="#bf0000" fill="#ff0000" id="svg_10" d="m255,77c0,1 0,1 0,1c1,1 2,2 3,3c0,0 0,1 0,1c0,0 -0.70709,0.29289 0,1c0.70709,0.70711 1,1 1,1c0,0 0,1 0,1c0,0 0,1 0,1c0,1 0,1 0,1c0,1 0,1 0,2c0,0 0,0 0,1c0,0 -1,0 -1,1c0,0 0.70709,1.29289 0,2c-0.70709,0.70711 -1,1 -1,1c0,1 0,1 0,1c-1,1 -0.29291,1.29289 -1,2c-0.70709,0.70711 -0.61731,0.07613 -1,1c-0.5412,1.30656 -1,1 -2,1c0,0 1,2 0,1c-1,-1 -1,1 -1,1c-1,0 -3,1 -4,1c0,0 -1,1 -2,1c0,0 -1.15225,0.23463 -3,1c-1.30655,0.5412 -3.07611,0.61731 -4,1c-1.30655,0.5412 -1,1 -1,1c-1,0 -1,0 -1,0c-2,0 -2,0 -3,0c0,0 0,0 -1,0c0,0 0,0 0,0l-1,0" stroke-width="2"/>
  <path stroke="#bf0000" fill="#ff0000" id="svg_11" d="m249,102c-1.05556,0.85 -1.05556,0.85 -1.05556,1.7c0,0 -1.05556,0.85 -1.05556,0.85c0,0 0,0 0,0.85c0,0 0,0 -1.05556,0.85c0,0 0,0 0,0c0,0 -0.30918,0.24896 -1.05556,0.85c-0.74637,0.60104 0,0.85 0,0.85c0,0.85 -1.05556,0.85 -1.05556,0.85c-1.05556,0.85 -1.05556,0.85 -1.05556,1.7c0,0 -1.05556,0 -1.05556,0.85c0,0 -1.05556,0.85 -1.05556,0.85c0,0 0,0.85 -1.05556,0.85c0,0 -0.30918,0.24896 -1.05556,0.85c-0.74637,0.60104 -0.08034,0.52471 -1.05556,0.85c-1.37914,0.46002 -1.05556,0.85 -1.05556,0.85c-1.05556,0 -1.13589,0.52471 -2.11111,0.85c-1.37914,0.46002 -1.05556,0.85 -1.05556,0.85c-1.05556,0 -2.11111,0 -2.11111,0c-1.05556,0.85 -1.05556,0.85 -2.11111,0.85c0,0 0,0 0,0c0,0 -1.05556,0 -1.05556,0c-1.05556,0 -1.05556,0 -1.05556,0c-1.05556,0.85 -1.05556,0.85 -2.11111,0.85c0,0 0,0 -1.05556,0c0,0 0,0 -1.05556,0c-1.05556,0 -2.11111,0 -2.11111,0c0,0 0,0 0,0c0,0 -1.05556,0 -1.05556,0c-1.05556,0 -2.11111,0 -5.27778,0c-2.11111,0 -2.11111,0 -2.11111,0l0,0l-1.05556,0" stroke-width="2"/>
  <polyline fill="none" stroke="#000" points="-479,2 -476,3 -476,3 " id="svg_12" stroke-linecap="round"/>
  <path fill="#ff0000" id="svg_13" d="m226,119c0,0 -0.82456,1 -0.82456,1c0,0 0,0 -0.82456,1c0,0 0,0 0,0c0,1 0,1 -0.82456,1c0,0 0,1 0,1c-0.82456,0 -0.82456,0 -0.82456,0c0,0 -0.82456,1 -0.82456,1c-0.82456,0 -0.82456,1 -1.64912,1c0,0 -0.82456,1 -0.82456,1c0,0 0,0 0,0c0,0 -0.24152,0.29289 -0.82456,1c-0.58304,0.70711 -1.64912,0 -1.64912,0c0,0 -1.64912,1 -1.64912,1c-0.82456,0 -0.88733,-0.38269 -1.64912,0c-1.07734,0.5412 -1.64912,1 -1.64912,1c-0.82456,0 -0.24151,0.29289 -0.82456,1c-0.58305,0.70711 -0.82456,0 -0.82456,0c-0.82456,0 -0.82456,0 -1.64912,0c-1.64912,0 -1.64912,0 -2.47368,0c-0.82456,0 -0.82456,0 -1.64912,0c0,0 -0.82456,0 -0.82456,0c0,0 0,0 -0.82456,0c0,0 0,0 0,1c0,0 -0.82456,0 -1.64912,0c-0.82456,0 -0.82456,0 -1.64912,0c-0.82456,0 -0.82456,0 -0.82456,0c-0.82456,0 -0.82456,0 -0.82456,0c0,0 -0.82456,0 -0.82456,0c0,0 0,0 -0.82456,0c0,0 0,0 -1.64912,0c-0.82456,0 -1.64912,0 -2.47368,0c-0.82456,0 -0.82456,0 -1.64912,0c0,0 -0.82456,0 -1.64912,0c0,0 0,0 0,0c0,0 -0.82456,0 -0.82456,0c0,0 0,0 -0.82456,0c0,0 0,0 -0.82456,0c0,0 0,0 -0.82456,0c-0.82456,0 -0.82456,0 -1.64912,0c0,0 0,0 -0.82456,0c0,0 0,0 -0.82456,0c-1.64912,0 -2.47368,0 -3.29825,-1l0,0l0,0" stroke="#bf0000" stroke-width="2"/>
  <line fill="#000000" stroke="#bf0000" x1="178" y1="132" x2="178" y2="265" id="svg_14" stroke-width="5"/>
  <line fill="none" stroke="#000" x1="963" y1="291" x2="963" y2="290" id="svg_15"/>
  <line fill="#000000" stroke="#bf0000" x1="177" y1="263" x2="155" y2="263" id="svg_16" stroke-width="5"/>
  <path fill="#ff0000" stroke="#bf0000" id="svg_17" d="m141,95c-1,0 -1,0 -1,0c-3,0 -3.69344,0.4588 -5,1c-0.92387,0.38269 -1,0 -2,0c-1,0 -1,0 -3,0c-1,0 -2,0 -2,0c-1,0 -2,0 -3,0c-1,0 -1,0 -2,0c-1,0 -2.15224,0.76537 -4,0c-1.30656,-0.5412 -3,-1 -4,-1c0,0 -1,0 -1,0c-1,0 -1,0 -2,0c-1,0 -2,0 -3,0c0,0 -1,0 -1,0c-1,0 -0.69344,-0.4588 -2,-1c-0.92387,-0.38269 -1,0 -2,0c0,0 -1,0 -4,-1c0,0 -1,0 -1,0c-1,0 -1,0 -1,0c-1,-1 -1,-1 -2,-1c0,0 -1,0 -1,0c-1,-1 -1,-1 -2,-1c0,0 0,0 -1,0c0,0 -0.29289,-0.29289 -1,-1c-0.70711,-0.70711 -2,0 -2,0c-1,0 -0.69344,-0.4588 -2,-1c-0.92387,-0.38269 -1,0 -1,0c-1,0 -1,0 -2,-1c0,0 -1,0 -2,0c0,0 -0.69344,-0.4588 -2,-1c-0.92388,-0.38269 -2,-1 -3,-1c0,0 -0.69344,-0.4588 -2,-1c-0.92388,-0.38269 -1.07612,0.38269 -2,0c-1.30656,-0.5412 -2,-1 -3,-2c0,0 -1,0 -2,-1c0,0 -1,0 -1,0c0,0 -1,0 -1,0c0,0 -0.29289,-0.29289 -1,-1c-0.70711,-0.70711 -1,-1 -1,-1c-1,-1 -1,-1 -1,-1c0,0 -1,0 -1,0c0,0 0,0 0,-1c0,0 0,0 0,0c-1,0 -1,0 -1,-1c0,0 0,0 -1,0c0,0 0,0 0,-1c0,0 0,0 0,0c-1,0 -1,0 -1,0c0,0 0,0 0,-1c0,0 0,0 0,0c-1,0 -1,0 -1,-1c0,0 -0.29289,0.70711 -1,0c-0.70711,-0.70711 -0.29289,-0.29289 -1,-1c-0.70711,-0.70711 0,-1 0,-1c-1,0 -1,0 -1,0c0,-1 -1,-1 -1,-1c0,0 0.70711,-0.29289 0,-1c-0.70711,-0.70711 -1,0 -1,0c-1,0 -1.29289,-0.29289 -2,-1c-0.70711,-0.70711 0,-1 -1,-1l0,0l0,0l0,0" stroke-width="2"/>
  <path fill="none" stroke="#000" id="svg_18" d="m-122,231c122,-231 122,-231 122,-231l-122,230l0,0l-1,0"/>
  <path fill="#ff0000" id="svg_19" d="m50.875,66c0,0 0,0.84211 -1.29167,1.68421c-1.29167,0.84211 -0.37832,2.77296 -1.29167,3.36842c-0.91335,0.59546 -1.29167,0.84211 -1.29167,1.68421c0,0 0,0 0,0.84211c0,0.84211 0,0.84211 0,1.68421c0,0 0,0.84211 0,1.68421c0,0 0,0.84211 0,0.84211c0,0.84211 0.37832,1.08875 1.29167,1.68421c0.91335,0.59546 0,0.84211 0,1.68421c0,0.84211 0.59262,1.42605 1.29167,2.52632c0.4943,0.778 1.29167,1.68421 1.29167,2.52632c0,0 1.29167,0.84211 1.29167,1.68421c0,0.84211 -0.53503,1.3354 1.29167,2.52632c0.91335,0.59546 1.29167,0.84211 1.29167,0.84211c1.29167,0.84211 1.29167,0.84211 1.29167,0.84211c0,0.84211 0,0.84211 1.29167,1.68421c0,0 1.29167,0.84211 1.29167,0.84211c0,0 1.29167,0.84211 1.29167,0.84211c1.29167,0.84211 1.29167,0.84211 1.29167,0.84211c1.29167,0.84211 2.58333,0.84211 2.58333,0.84211c1.29167,0 1.38999,-0.32227 2.58333,0c1.68765,0.45575 2.58333,0.84211 2.58333,0.84211c0,0 1.29167,0 1.29167,0c1.29167,0 1.29167,0 2.58333,0c0,0 1.29167,0 1.29167,0c0,0 1.29167,0 1.29167,0c0,0 1.29167,0 1.29167,0c0,0 0,0 1.29167,0l0,0l0,0l0,0" stroke="#bf0000" stroke-width="2"/>
  <path fill="#ff0000" stroke="#bf0000" id="svg_20" d="m55,92c0,0 0,0 0,1c0,1 -1,2 -1,3c0,1 1,2 1,3c0,0 0,1 0,1c0,0 0,0 0,1c0,0 1,0 1,1c0,0 0.07612,0.61731 1,1c1.30656,0.5412 0.29289,1.29289 1,2c0.70711,0.70711 2,1 2,1c1,1 1,2 2,2c0,0 0.29289,0.29289 1,1c0.70711,0.70711 1,0 1,0c1,1 1,1 2,1c0,0 0,0 1,0c1,0 1,1 1,1c1,0 1,0 2,0c0,0 1,0 1,0c1,0 1,0 1,0c1,0 1,1 1,1c0,0 0,0 1,0c0,0 1,0 1,0c0,0 0,0 0,0c1,0 1,0 1,0c0,0 1,0 1,0c1,0 1,0 1,0c0,0 0,0 1,0c0,0 1,0 1,0c0,0 0,0 1,0c0,0 0,0 1,0c0,0 1,0 1,0c1,0 1,0 1,0c1,0 1,0 1,0c0,0 0,0 1,0c0,0 0,0 1,0c0,0 0,0 0,0l1,0l0,0" stroke-width="2"/>
  <path fill="none" stroke="#000" id="svg_21" d="m-311,189c0,0 0,0 0,0l-1,0"/>
  <path fill="#ff0000" stroke="#bf0000" id="svg_22" d="m74,112c0,0 0,0 1,1c0,0 -0.70711,1.29289 0,2c0.70711,0.70711 1,0 1,0c0,1 1,1 1,1c0,1 0,1 0,1c1,0 1,1 2,2c1,1 1.29289,0.29289 2,1c0.70711,0.70711 1,1 1,1c1,1 1,1 2,1c0,0 1,0 1,0c1,1 2,1 2,1c1,0 0.69344,0.4588 2,1c0.92387,0.38269 2,0 3,0c0,0 1,0 2,0c0,0 1,0 1,0c1,0 2,0 2,0c0,0 1,0 1,0c1,0 1,0 2,0c0,0 0,0 1,0c0,0 1,0 1,0c0,0 0,0 1,0c0,0 0,0 1,0c0,0 1,0 1,0c0,0 1,0 1,0c1,0 1,0 1,0c1,0 1,0 2,0c0,0 0,0 1,0c0,0 1,0 1,0c0,0 1,0 1,0c0,0 1,0 1,0c0,0 1,0 1,0c0,0 0,-1 1,-1c0,0 1,0 1,0c0,0 1,0 1,0c0,0 0,0 0,0c1,0 1,0 1,0c0,0 1,0 1,0c0,0 0,-1 0,-1c1,0 1,0 1,0c0,0 1,0 1,0l0,0l0,0" stroke-width="2"/>
  <polyline fill="none" stroke="#000" points="680,244 680,244 " id="svg_23" stroke-linecap="round"/>
 </g>
</svg>